<svg width="1920" height="1080" viewBox="0 0 1920 1080" fill="none" xmlns="http://www.w3.org/2000/svg">
  <rect width="1920" height="1080" fill="#120906"/>
  <rect width="1920" height="1080" fill="url(#paint0_radial)"/>
  <rect width="1920" height="1080" fill="url(#paint1_radial)"/>
  <rect width="1920" height="1080" fill="url(#paint2_linear)"/>
  <path d="M120 860C410 790 660 790 920 860C1160 926 1420 930 1800 820" stroke="rgba(251,146,60,0.18)" stroke-width="4"/>
  <path d="M160 930C600 820 1110 850 1650 940" stroke="rgba(245,158,11,0.14)" stroke-width="2"/>
  <circle cx="1540" cy="200" r="230" fill="url(#paint3_radial)" fill-opacity="0.85"/>
  <circle cx="280" cy="300" r="170" fill="url(#paint4_radial)" fill-opacity="0.7"/>
  <g opacity="0.16">
    <rect x="140" y="180" width="330" height="200" rx="24" stroke="#FDBA74"/>
    <rect x="520" y="260" width="460" height="250" rx="28" stroke="#FB923C"/>
    <rect x="1100" y="420" width="420" height="220" rx="26" stroke="#F59E0B"/>
  </g>
  <defs>
    <radialGradient id="paint0_radial" cx="0" cy="0" r="1" gradientUnits="userSpaceOnUse" gradientTransform="translate(1510 180) rotate(123.4) scale(510 760)">
      <stop stop-color="#FB923C" stop-opacity="0.3"/>
      <stop offset="1" stop-color="#FB923C" stop-opacity="0"/>
    </radialGradient>
    <radialGradient id="paint1_radial" cx="0" cy="0" r="1" gradientUnits="userSpaceOnUse" gradientTransform="translate(340 260) rotate(66.3) scale(420 650)">
      <stop stop-color="#F59E0B" stop-opacity="0.18"/>
      <stop offset="1" stop-color="#F59E0B" stop-opacity="0"/>
    </radialGradient>
    <linearGradient id="paint2_linear" x1="960" y1="0" x2="960" y2="1080" gradientUnits="userSpaceOnUse">
      <stop stop-color="#190B07"/>
      <stop offset="1" stop-color="#05070E"/>
    </linearGradient>
    <radialGradient id="paint3_radial" cx="0" cy="0" r="1" gradientUnits="userSpaceOnUse" gradientTransform="translate(1540 200) rotate(90) scale(230)">
      <stop stop-color="#FCD34D" stop-opacity="0.28"/>
      <stop offset="1" stop-color="#FCD34D" stop-opacity="0"/>
    </radialGradient>
    <radialGradient id="paint4_radial" cx="0" cy="0" r="1" gradientUnits="userSpaceOnUse" gradientTransform="translate(280 300) rotate(90) scale(170)">
      <stop stop-color="#FDBA74" stop-opacity="0.26"/>
      <stop offset="1" stop-color="#FDBA74" stop-opacity="0"/>
    </radialGradient>
  </defs>
</svg>
