<svg width="1920" height="1080" viewBox="0 0 1920 1080" fill="none" xmlns="http://www.w3.org/2000/svg">
  <rect width="1920" height="1080" fill="#04131D"/>
  <rect width="1920" height="1080" fill="url(#paint0_radial)"/>
  <rect width="1920" height="1080" fill="url(#paint1_radial)"/>
  <rect width="1920" height="1080" fill="url(#paint2_linear)"/>
  <path d="M140 910C430 720 860 700 1190 840C1410 932 1615 958 1780 900" stroke="rgba(56,189,248,0.14)" stroke-width="4"/>
  <path d="M110 842C480 680 990 676 1390 842" stroke="rgba(20,184,166,0.16)" stroke-width="2"/>
  <path d="M1120 120C1310 180 1490 328 1640 520" stroke="rgba(94,234,212,0.14)" stroke-width="3"/>
  <circle cx="300" cy="210" r="180" fill="url(#paint3_radial)" fill-opacity="0.8"/>
  <circle cx="1570" cy="270" r="240" fill="url(#paint4_radial)" fill-opacity="0.75"/>
  <g opacity="0.2">
    <path d="M0 160H1920" stroke="#67E8F9"/>
    <path d="M0 340H1920" stroke="#67E8F9"/>
    <path d="M0 520H1920" stroke="#67E8F9"/>
    <path d="M0 700H1920" stroke="#67E8F9"/>
    <path d="M0 880H1920" stroke="#67E8F9"/>
    <path d="M160 0V1080" stroke="#2DD4BF"/>
    <path d="M440 0V1080" stroke="#2DD4BF"/>
    <path d="M720 0V1080" stroke="#2DD4BF"/>
    <path d="M1000 0V1080" stroke="#2DD4BF"/>
    <path d="M1280 0V1080" stroke="#2DD4BF"/>
    <path d="M1560 0V1080" stroke="#2DD4BF"/>
  </g>
  <defs>
    <radialGradient id="paint0_radial" cx="0" cy="0" r="1" gradientUnits="userSpaceOnUse" gradientTransform="translate(1450 210) rotate(128.5) scale(500 820)">
      <stop stop-color="#38BDF8" stop-opacity="0.22"/>
      <stop offset="1" stop-color="#38BDF8" stop-opacity="0"/>
    </radialGradient>
    <radialGradient id="paint1_radial" cx="0" cy="0" r="1" gradientUnits="userSpaceOnUse" gradientTransform="translate(260 160) rotate(54.6) scale(420 690)">
      <stop stop-color="#2DD4BF" stop-opacity="0.16"/>
      <stop offset="1" stop-color="#2DD4BF" stop-opacity="0"/>
    </radialGradient>
    <linearGradient id="paint2_linear" x1="960" y1="0" x2="960" y2="1080" gradientUnits="userSpaceOnUse">
      <stop stop-color="#071B27"/>
      <stop offset="1" stop-color="#02060E"/>
    </linearGradient>
    <radialGradient id="paint3_radial" cx="0" cy="0" r="1" gradientUnits="userSpaceOnUse" gradientTransform="translate(300 210) rotate(90) scale(180)">
      <stop stop-color="#67E8F9" stop-opacity="0.34"/>
      <stop offset="1" stop-color="#67E8F9" stop-opacity="0"/>
    </radialGradient>
    <radialGradient id="paint4_radial" cx="0" cy="0" r="1" gradientUnits="userSpaceOnUse" gradientTransform="translate(1570 270) rotate(90) scale(240)">
      <stop stop-color="#34D399" stop-opacity="0.22"/>
      <stop offset="1" stop-color="#34D399" stop-opacity="0"/>
    </radialGradient>
  </defs>
</svg>
